<svg xmlns="http://www.w3.org/2000/svg" viewBox="0 0 96 96">
  <title>bear, panda, animal</title>
  <g>
    <path d="M52,64a2.0026,2.0026,0,0,0-2-2H46a2,2,0,0,0,0,4h4A2.0026,2.0026,0,0,0,52,64Z" fill="#646464"/>
    <path d="M48,50a11.9814,11.9814,0,0,0-2,23.7979V70a6,6,0,0,1,0-12h4a6,6,0,0,1,0,12v3.7979A11.9814,11.9814,0,0,0,48,50Z" fill="#646464"/>
    <path d="M48,12C27.3965,12,12,33.1172,12,52a36,36,0,0,0,72,0C84,33.1172,68.6035,12,48,12ZM36,32a4,4,0,1,1-4,4A4.004,4.004,0,0,1,36,32ZM48,78A16,16,0,1,1,64,62,16.0171,16.0171,0,0,1,48,78ZM60,40a4,4,0,1,1,4-4A4.004,4.004,0,0,1,60,40Z" fill="#646464"/>
    <path d="M31.8206,12.1138A13.8066,13.8066,0,0,0,22,8,14.017,14.017,0,0,0,8,22a13.87,13.87,0,0,0,4.7407,10.4524A45.5845,45.5845,0,0,1,31.8206,12.1138Z" fill="#646464"/>
    <path d="M83.2593,32.4524A13.87,13.87,0,0,0,88,22,14.017,14.017,0,0,0,74,8a13.8066,13.8066,0,0,0-9.8206,4.1138A45.5845,45.5845,0,0,1,83.2593,32.4524Z" fill="#646464"/>
  </g>
</svg>
