<svg xmlns="http://www.w3.org/2000/svg" viewBox="0 0 96 96">
  <title>bird, dove, pigeon</title>
  <g>
    <path d="M87.7888,37.1055c-2.1953-4.3926-4.6562-6.9609-7.5214-7.8535-3.9219-1.2246-7.6348.8145-11.5664,2.9746C65.326,34.0821,61.8378,36,58,36,43.0546,36,31.49,28.5079,27.789,21.1056a2.005,2.005,0,0,0-2.6835-.8946c-5.2383,2.6192-9.5449,10.123-10.24,17.84a23.3394,23.3394,0,0,0,8.1406,20.09c-3.2383,3.07-6.3281,4.9687-12.1113,2.07a1.9991,1.9991,0,0,0-2.8555,2.18l4,20A1.9992,1.9992,0,0,0,14,84c8.3184,0,16.3457-7.5469,20.6621-11.8359,25.0936,4.6289,32.2538-8.2148,38.0311-18.5586C76.3729,47.02,79.5506,41.33,86.3924,39.961a2,2,0,0,0,1.3964-2.8555Z" fill="#646464"/>
    <path d="M52,14a1.9989,1.9989,0,0,0-2-2A16.1688,16.1688,0,0,0,37.082,18.9083a13.8252,13.8252,0,0,0-2.0906,4.999c4.5732,4.1843,12.2736,7.6279,21.4421,7.9973C53.983,26.7733,52,19.3075,52,14Z" fill="#646464"/>
  </g>
</svg>
