<svg xmlns="http://www.w3.org/2000/svg" viewBox="0 0 96 96">
  <title>buffalo, bull, bison</title>
  <g>
    <path d="M70,30.0011H26a1.9993,1.9993,0,0,0-1.9395,1.5156c-3.6835,14.7324-.3789,24.8867,2.8184,30.84.4473.83.8965,1.6679,1.332,2.539A32.1891,32.1891,0,0,1,30.6777,72.81C32.1426,79.5929,33.5254,86.0011,48,86.0011S63.8574,79.5929,65.3223,72.81a32.1891,32.1891,0,0,1,2.4668-7.9141c.4355-.8711.8847-1.709,1.332-2.539,3.1973-5.9532,6.5019-16.1075,2.8184-30.84A1.9993,1.9993,0,0,0,70,30.0011ZM35.2734,48.7316A4.3523,4.3523,0,0,1,35.27,42.589a1.9955,1.9955,0,0,1,1.4141-.5879h.0019A1.9985,1.9985,0,0,1,38.1,42.587l3.3145,3.3145a1.9993,1.9993,0,0,1-.002,2.83,4.3547,4.3547,0,0,1-6.1387,0ZM44.8945,73.79a2.001,2.001,0,0,1-2.6836-.8946l-2-4a2,2,0,0,1,3.5782-1.789l2,4A2,2,0,0,1,44.8945,73.79Zm10.8946-4.8946-2,4a2,2,0,0,1-3.5782-1.789l2-4a2,2,0,0,1,3.5782,1.789Zm4.9414-20.1679a4.3547,4.3547,0,0,1-6.1426.0039,1.9993,1.9993,0,0,1-.002-2.83L57.9,42.587a1.9985,1.9985,0,0,1,1.4141-.5859h.0019a1.9955,1.9955,0,0,1,1.4141.5879A4.3512,4.3512,0,0,1,60.7305,48.7277Z" fill="#646464"/>
    <path d="M75.855,30.714c1.8323,7.4053,1.9817,12.8708,1.3139,17.271,3.0044,1.97,5.7791,2.0161,8.6592,2.0161a1.9988,1.9988,0,0,0,2-2C87.8281,39.7985,85.9136,35.0028,75.855,30.714Z" fill="#646464"/>
    <path d="M86.7656,10.1534a1.991,1.991,0,0,0-2.18.4336C81.1719,14.0011,77.8477,14.0011,74,14.0011H62c-6.3145,0-11.3652.0976-14,4.2773-2.6348-4.18-7.6855-4.2773-14-4.2773H22c-3.8477,0-7.1719,0-10.5859-3.4141A2,2,0,0,0,8,12.0011v4c0,4.8164,4.3809,10,14,10H74c9.6191,0,14-5.1836,14-10v-4A1.9979,1.9979,0,0,0,86.7656,10.1534Z" fill="#646464"/>
    <path d="M8.1719,48.0021a1.9989,1.9989,0,0,0,2,2c2.88,0,5.6548-.0459,8.6592-2.0161-.6678-4.4-.5184-9.8658,1.3139-17.271C10.0864,35.0038,8.1719,39.7994,8.1719,48.0021Z" fill="#646464"/>
  </g>
</svg>
