<svg xmlns="http://www.w3.org/2000/svg" viewBox="0 0 96 96">
  <title>butterfly, fly, beauty</title>
  <g>
    <path d="M20.0349,17.654c-5.504.5645-9.7032,3.211-11.8244,7.4512-2.164,4.3282-.9218,11.5978,3.09,18.0881C14.21,47.9,22.6035,58.4015,40,59.8278V23.9631C34.0692,19.405,26.7012,16.9609,20.0349,17.654Z" fill="#646464"/>
    <path d="M11.7731,65.6232a16.2551,16.2551,0,0,0,4.8125,13.7912A16.2851,16.2851,0,0,0,28.34,84.3617c.4219,0,.8516-.0156,1.2813-.0449A21.3886,21.3886,0,0,0,40,80.514v-16.68a41.8451,41.8451,0,0,1-23.091-8.568A18.0389,18.0389,0,0,0,11.7731,65.6232Z" fill="#646464"/>
    <path d="M87.79,25.1052A14.4525,14.4525,0,0,0,75.8323,17.197C69.3318,16.5192,61.9972,19.0991,56,23.8589V59.8278C73.3965,58.4015,81.79,47.9,84.7,43.1933,88.7113,36.703,89.9535,29.4334,87.79,25.1052Z" fill="#646464"/>
    <path d="M79.0631,55.2462a41.7542,41.7542,0,0,1-22.7349,8.5684L56,63.8415V80.514a21.3886,21.3886,0,0,0,10.379,3.8028c.43.0293.8594.0449,1.2813.0449A16.8409,16.8409,0,0,0,84.2113,65.5138,18.0409,18.0409,0,0,0,79.0631,55.2462Z" fill="#646464"/>
    <path d="M58,12a2,2,0,1,0,0-4c-4.7762,0-8.8289,7.0587-9.784,12h-.4322C46.8288,15.0583,42.7761,8,38,8a2,2,0,0,0,0,4c2.4141,0,6,6.5567,6,10V84a4,4,0,1,0,8,0V22C52,18.5563,55.586,12,58,12Z" fill="#646464"/>
  </g>
</svg>
