<svg xmlns="http://www.w3.org/2000/svg" viewBox="0 0 96 96">
  <title>cat, kitten, pet</title>
  <path d="M89.8325,48.0082S77.7191,49.016,77.6605,49.016a2,2,0,0,1-.1641-3.9922l8.2667-.689a37.9663,37.9663,0,0,0-4.6416-14.8991l2.8516-17.1076a1.9972,1.9972,0,0,0-2.6055-2.2247L66.7346,14.98a38.3153,38.3153,0,0,0-37.4692,0l-14.633-4.877a1.9972,1.9972,0,0,0-2.6055,2.2247l2.8516,17.1076a37.9663,37.9663,0,0,0-4.6416,14.8991l8.2667.689A2,2,0,0,1,18.34,49.016c-.0586,0-12.172-1.0078-12.172-1.0078a2.0183,2.0183,0,0,0-2.16,1.8262,1.9973,1.9973,0,0,0,1.8242,2.1582l12.9963,1.125c1.47.0435,2.1328.48,2.3516,1.57a1.9951,1.9951,0,0,1-1.57,2.3516l-10,2a2,2,0,0,0,.3868,3.961l8.9456-1.1958c1.5962-.228,2.168-.3047,2.754.6367a1.9975,1.9975,0,0,1-.6368,2.754S16.0177,68.37,16.0233,68.379L12.941,70.3053A2,2,0,0,0,14,74.0007a1.9772,1.9772,0,0,0,1.0586-.3047l3.3194-2.0748a37.7013,37.7013,0,0,0,59.2448,0l3.3194,2.0748a1.9951,1.9951,0,0,0,2.7539-.6368,1.9972,1.9972,0,0,0-.6367-2.7539L79.9767,68.379c.0056-.0088-5.0352-3.1836-5.0352-3.1836a1.9975,1.9975,0,0,1-.6368-2.754c.586-.9414,1.1578-.8647,2.754-.6367l8.9456,1.1958a2,2,0,0,0,.3868-3.961l-10-2a1.9951,1.9951,0,0,1-1.57-2.3516c.2188-1.09.8816-1.5268,2.3516-1.57l12.9963-1.125a1.9973,1.9973,0,0,0,1.8242-2.1582A2.0183,2.0183,0,0,0,89.8325,48.0082ZM33.9061,38.6038a2,2,0,0,1-3.8126-1.2071A7.4007,7.4007,0,0,1,37,32a7.4,7.4,0,0,1,6.9063,5.3965,1.9988,1.9988,0,0,1-1.3047,2.51A1.95,1.95,0,0,1,42,40a1.9987,1.9987,0,0,1-1.9062-1.3965A3.4309,3.4309,0,0,0,37,36,3.4309,3.4309,0,0,0,33.9061,38.6038ZM58,60.0005A5.9739,5.9739,0,0,1,48,64.44a5.9739,5.9739,0,0,1-10-4.4395v-2a2,2,0,1,1,4,0v2a2,2,0,0,0,4,0,2,2,0,0,1,4,0,2,2,0,0,0,4,0v-2a2,2,0,1,1,4,0Zm6.6017-20.094a1.9911,1.9911,0,0,1-2.5079-1.3027,3.14,3.14,0,0,0-6.1876,0A1.9987,1.9987,0,0,1,54,40a1.95,1.95,0,0,1-.6016-.0938,1.9988,1.9988,0,0,1-1.3047-2.51,7.1176,7.1176,0,0,1,13.8127,0A1.9988,1.9988,0,0,1,64.6018,39.9065Z" fill="#646464"/>
</svg>
