<svg xmlns="http://www.w3.org/2000/svg" viewBox="0 0 96 96">
  <title>cow, cattle, animal</title>
  <g>
    <path d="M87.6759,32.91a9.6759,9.6759,0,0,0-7.5469-4.0586,10.6053,10.6053,0,0,0-5.7144,1.3611,55.43,55.43,0,0,1,1.5308,11.9341A13.387,13.387,0,0,0,87.84,34.781,1.992,1.992,0,0,0,87.6759,32.91Z" fill="#646464"/>
    <path d="M71.1563,8.3669A2.0035,2.0035,0,0,0,68.004,9.8474c-.0789,1.0461-.92,2.7185-3.1722,3.843a28.2247,28.2247,0,0,1,8.1993,11.9573A11.179,11.179,0,0,0,76.57,18.57C76.8907,14.6911,74.9688,11.0661,71.1563,8.3669Z" fill="#646464"/>
    <path d="M8.3241,32.91A1.992,1.992,0,0,0,8.16,34.781a13.3805,13.3805,0,0,0,11.8946,7.3655,55.4325,55.4325,0,0,1,1.53-11.9319,10.6612,10.6612,0,0,0-5.7139-1.3633A9.6759,9.6759,0,0,0,8.3241,32.91Z" fill="#646464"/>
    <path d="M31.1682,13.69c-2.2525-1.1245-3.0933-2.7969-3.1722-3.843a2.0035,2.0035,0,0,0-3.1523-1.4805C21.0312,11.0661,19.1093,14.6911,19.43,18.57a11.179,11.179,0,0,0,3.5393,7.0777A28.2247,28.2247,0,0,1,31.1682,13.69Z" fill="#646464"/>
    <path d="M48,12C31.5156,12,24,25.16,24,44c0,4.9063,1.3242,8.8438,2.7266,13.0157.6536,1.9414,1.2556,4.0027,1.7983,6.1616A15.8353,15.8353,0,0,1,35.8254,60.22,10.5648,10.5648,0,0,1,38,60H58a10.5648,10.5648,0,0,1,2.1746.22,15.8353,15.8353,0,0,1,7.3006,2.9573c.5427-2.1589,1.1447-4.22,1.7983-6.1616C70.6759,52.8436,72,48.9061,72,44,72,25.16,64.4844,12,48,12ZM38,40a4,4,0,1,1,4-4A4.0027,4.0027,0,0,1,38,40Zm20,0a4,4,0,1,1,4-4A4.0027,4.0027,0,0,1,58,40Z" fill="#646464"/>
    <path d="M58,64H38a12,12,0,1,0,0,24H58a12,12,0,1,0,0-24ZM40,80a4,4,0,1,1,4-4A4,4,0,0,1,40,80Zm16,0a4,4,0,1,1,4-4A4,4,0,0,1,56,80Z" fill="#646464"/>
  </g>
</svg>
