<svg xmlns="http://www.w3.org/2000/svg" viewBox="0 0 96 96">
  <title>deer, antler, animal</title>
  <g>
    <path d="M52,68.0347H44a4,4,0,0,0,8,0Z" fill="#646464"/>
    <path d="M57.1985,25.6643l5.63-5.63H74a1.9986,1.9986,0,0,0,1.4141-.586l8-8a2,2,0,1,0-2.8282-2.8281l-7.414,7.4141H65.2363l2.5528-5.1055A2,2,0,0,0,64.2109,9.14l-3.8554,7.711-7.6277,7.6277a25.3877,25.3877,0,0,0-9.4556,0l-7.6277-7.6277L31.7891,9.14a2,2,0,0,0-3.5782,1.7891l2.5528,5.1055H22.8281l-7.414-7.4141a2,2,0,1,0-2.8282,2.8281l8,8A1.9988,1.9988,0,0,0,22,20.0347H33.1719l5.63,5.63a24.0127,24.0127,0,0,0-10.7429,7.7336c-4.5313,5.8047-5.9531,13.3047-4,21.1211.7187,2.8711,1.3086,5.6407,1.8672,8.27C28.6836,75.7651,31.1182,87.0171,46,87.9438V75.7505a7.9942,7.9942,0,0,1-6-7.7158,4.0027,4.0027,0,0,1,4-4h8a4.0027,4.0027,0,0,1,4,4,7.9942,7.9942,0,0,1-6,7.7158V87.9438c14.8818-.9267,17.3164-12.1787,20.0742-25.1552.5586-2.6289,1.1485-5.3985,1.8672-8.27,1.9531-7.8164.5313-15.3164-4-21.1211A24.0127,24.0127,0,0,0,57.1985,25.6643ZM40,48.0347H36a2,2,0,0,1,0-4h4a2,2,0,0,1,0,4Zm20,0H56a2,2,0,0,1,0-4h4a2,2,0,0,1,0,4Z" fill="#646464"/>
    <path d="M87.4141,28.6206c-2.2383-2.2383-6.293-3.4492-10.9805-3.3633a20.8463,20.8463,0,0,0-8.7044,2.1477,27.4829,27.4829,0,0,1,3.3646,3.532,26.6,26.6,0,0,1,4.7612,9.7036C82.0723,39.6018,88,36.9333,88,30.0347A1.9985,1.9985,0,0,0,87.4141,28.6206Z" fill="#646464"/>
    <path d="M28.2708,27.405a20.8463,20.8463,0,0,0-8.7044-2.1477c-4.6875-.0859-8.7422,1.125-10.9805,3.3633A1.9985,1.9985,0,0,0,8,30.0347c0,6.8986,5.9277,9.5671,12.145,10.6059a26.599,26.599,0,0,1,4.7613-9.7036A27.4753,27.4753,0,0,1,28.2708,27.405Z" fill="#646464"/>
  </g>
</svg>
