<svg xmlns="http://www.w3.org/2000/svg" viewBox="0 0 96 96">
  <title>dog, puppy, pet</title>
  <g>
    <path d="M11.84,28.1074c-6.08,13.08-7.44,22.16-3.96,26.96a7.8366,7.8366,0,0,0,6.64,3.24,7.7484,7.7484,0,0,0,.96-.08c.2-1.12.4-2.32.68-3.52l.68-3.12c2.16-10.08,5.28-24.32,12.44-33.76C24.04,18.1876,15.6,20.0277,11.84,28.1074Z" fill="#646464"/>
    <path d="M75.2654,52.4571C71.7694,36.36,66.4842,12.0277,48,12.0277S24.2306,36.36,20.7346,52.4571l-.6875,3.1367c-1.9922,8.9726-1.127,15.621,2.65,20.328C26.8314,81.0746,34.5,83.6959,46,83.9723V71.7434a7.9929,7.9929,0,0,1-6-7.716,4.0039,4.0039,0,0,1,4-4h8a4.0039,4.0039,0,0,1,4,4,7.9929,7.9929,0,0,1-6,7.716V83.9723c11.5-.2764,19.1686-2.8977,23.3026-8.05,3.7773-4.707,4.6425-11.3554,2.65-20.328ZM42,44.0275a1.9988,1.9988,0,0,1-2-2,2,2,0,0,0-4,0,2,2,0,0,1-4,0,6,6,0,1,1,12,0A1.9988,1.9988,0,0,1,42,44.0275Zm20,0a1.9988,1.9988,0,0,1-2-2,2,2,0,0,0-4,0,2,2,0,1,1-4,0,6,6,0,1,1,12,0A1.9988,1.9988,0,0,1,62,44.0275Z" fill="#646464"/>
    <path d="M52,64.0274H44a4,4,0,0,0,8,0Z" fill="#646464"/>
    <path d="M84.16,28.1074c-3.76-8.08-12.2-9.92-17.44-10.28,7.16,9.44,10.28,23.72,12.44,33.8l.72,3.12c.28,1.2.48,2.36.64,3.48v.04c.32,0,.64.04.96.04a7.8366,7.8366,0,0,0,6.64-3.24C91.6,50.2674,90.24,41.1874,84.16,28.1074Z" fill="#646464"/>
  </g>
</svg>
