<svg xmlns="http://www.w3.org/2000/svg" viewBox="0 0 96 96">
  <title>duck, poultry, bird</title>
  <g>
    <path d="M50,56H24.1406A14.026,14.026,0,0,0,38,68H50a6,6,0,0,0,0-12Z" fill="#646464"/>
    <path d="M88,30a2,2,0,0,0-2-2c-.0586.0059-.1211.002-.1836.002a23.8122,23.8122,0,0,1-10.0515-2.3262A15.965,15.965,0,0,0,44,28c0,3.7324,1.3164,6.66,2.4766,9.2441.4453.99.8593,1.9063,1.1406,2.7559H10a1.9988,1.9988,0,0,0-2,2V58c0,12.9219,8.93,26,26,26H58C69.27,84,76,77.27,76,66c0-6.6055-2.3047-10.0625-4.3359-13.1094-1.8633-2.7968-3.4883-5.2324-3.6524-10.0761a48.2815,48.2815,0,0,0,4.34-4.8079C78.0679,37.7766,88,35.7007,88,30ZM50,72H38A18.02,18.02,0,0,1,20,54a1.9988,1.9988,0,0,1,2-2H50a10,10,0,0,1,0,20Z" fill="#646464"/>
  </g>
</svg>
