<svg xmlns="http://www.w3.org/2000/svg" viewBox="0 0 96 96">
  <title>frog, toad, animal</title>
  <g>
    <circle cx="30" cy="22" r="4" fill="#646464"/>
    <path d="M44,64.8076V68a4,4,0,0,0,8,0V64.8076C50.6951,64.9312,49.3616,65,48,65S45.3049,64.9312,44,64.8076Z" fill="#646464"/>
    <path d="M77,30.6133A13.7432,13.7432,0,0,0,80,22a14.0012,14.0012,0,0,0-27.8867-1.7949,41.3438,41.3438,0,0,0-8.2266,0A14.0012,14.0012,0,0,0,16,22a13.7432,13.7432,0,0,0,3,8.6133C11.8867,36.959,8,45.19,8,54,8,72.748,25.9453,88,48,88S88,72.748,88,54C88,45.19,84.1133,36.959,77,30.6133ZM52,44h2a2,2,0,0,1,0,4H52a2,2,0,0,1,0-4ZM42,44h2a2,2,0,0,1,0,4H42a2,2,0,0,1,0-4ZM30,14a8,8,0,1,1-8,8A8.0091,8.0091,0,0,1,30,14ZM71.6641,55.1094c-2.9869,4.4814-8.6834,7.698-15.6641,9.1V68a8,8,0,0,1-16,0V64.209c-6.9807-1.4016-12.6772-4.6182-15.6641-9.1a2,2,0,0,1,3.3282-2.2188C30.9492,57.8164,38.93,61,48,61s17.0508-3.1836,20.3359-8.1094a2,2,0,1,1,3.3282,2.2188ZM66,30a8,8,0,1,1,8-8A8.0091,8.0091,0,0,1,66,30Z" fill="#646464"/>
    <circle cx="66" cy="22" r="4" fill="#646464"/>
  </g>
</svg>
