<svg xmlns="http://www.w3.org/2000/svg" viewBox="0 0 96 96">
  <title>giraffe, zoo, animal</title>
  <g>
    <path d="M22.6477,32.02C19.3054,28.16,11.0469,26.5844,8.76,28.4357a2.03,2.03,0,0,0-.76,1.56c0,4.76,7.28,13.8,15.56,16.96v-.1074Z" fill="#646464"/>
    <path d="M62,19.9958H60V12.007a4,4,0,0,0-8,0v7.9888H44V12.007a4,4,0,1,0-8,0v7.9888H34a8.3392,8.3392,0,0,0-5.44,2.52,8.1145,8.1145,0,0,0-2.12,6l3.2,52.04a7.9949,7.9949,0,0,0,7.96,7.44H58.36a8.0089,8.0089,0,0,0,8-7.48l3.2-52a8.1145,8.1145,0,0,0-2.12-6A8.3392,8.3392,0,0,0,62,19.9958Zm-18,54a2,2,0,0,1-4,0v-4a2,2,0,0,1,4,0Zm0-28a2,2,0,0,1-4,0v-4a1.98,1.98,0,0,0-2-2,2,2,0,0,1,0-4,5.9918,5.9918,0,0,1,6,6Zm12,28a2,2,0,0,1-4,0v-4a2,2,0,0,1,4,0Zm2-34a1.98,1.98,0,0,0-2,2v4a2,2,0,0,1-4,0v-4a5.9918,5.9918,0,0,1,6-6,2,2,0,0,1,0,4Z" fill="#646464"/>
    <path d="M73.3523,32.02c3.3423-3.86,11.6008-5.4356,13.8877-3.5843a2.03,2.03,0,0,1,.76,1.56c0,4.76-7.28,13.8-15.56,16.96v-.1074Z" fill="#646464"/>
  </g>
</svg>
