<svg xmlns="http://www.w3.org/2000/svg" viewBox="0 0 96 96">
  <title>koala, bear, marsupial</title>
  <g>
    <path d="M48,56a4.004,4.004,0,0,0-4,4v4a4,4,0,0,0,8,0V60A4.004,4.004,0,0,0,48,56Z" fill="#646464"/>
    <path d="M48,16C26.0137,16,16,36.7344,16,56c0,16.4844,13.1582,28,32,28S80,72.4844,80,56C80,36.7344,69.9863,16,48,16ZM38,40a2.0014,2.0014,0,0,0-2,2,2,2,0,0,1-4,0,6,6,0,0,1,12,0,2,2,0,0,1-4,0A2.0014,2.0014,0,0,0,38,40ZM56,64a8,8,0,0,1-16,0V60a8,8,0,0,1,16,0Zm6-20a1.9988,1.9988,0,0,1-2-2,2,2,0,0,0-4,0,2,2,0,0,1-4,0,6,6,0,0,1,12,0A1.9988,1.9988,0,0,1,62,44Z" fill="#646464"/>
    <path d="M74,12a15.8875,15.8875,0,0,0-10.2129,3.7683c9.6528,5.1362,15.6714,14.9678,18.4253,25.895A15.9565,15.9565,0,0,0,74,12Z" fill="#646464"/>
    <path d="M32.228,15.7612A15.743,15.743,0,0,0,22,12a15.9551,15.9551,0,0,0-8.2119,29.6614C16.5435,30.7292,22.5674,20.895,32.228,15.7612Z" fill="#646464"/>
  </g>
</svg>
