<svg xmlns="http://www.w3.org/2000/svg" viewBox="0 0 96 96">
  <title>lion, king, animal</title>
  <g>
    <path d="M55.8848,27.7966l-1.5782.8984a12.7862,12.7862,0,0,1-12.6152,0l-1.5742-.8984a8.7155,8.7155,0,0,0-11.58,12.3984l1.3262,1.9922A12.683,12.683,0,0,1,32,49.2419v7.02a8.6937,8.6937,0,0,0,3.8789,7.25l7.2852,4.8555A8.6239,8.6239,0,0,0,46,69.5432V63.0661L40.8906,59.66a2,2,0,1,1,2.2188-3.3282L48,59.5935l4.8906-3.2618A2,2,0,1,1,55.1094,59.66L50,63.0661v6.4771a8.6239,8.6239,0,0,0,2.8359-1.1763l7.2832-4.8555A8.6906,8.6906,0,0,0,64,56.2614v-7.02a12.683,12.683,0,0,1,2.1367-7.0547l1.3262-1.9922A8.7148,8.7148,0,0,0,55.8848,27.7966ZM43.4141,43.41a1.9995,1.9995,0,0,1-2.8282,0l-4-4a2,2,0,0,1,2.8282-2.8282l4,4A2,2,0,0,1,43.4141,43.41Zm16-4-4,4a2,2,0,1,1-2.8282-2.8282l4-4A2,2,0,0,1,59.4141,39.41Z" fill="#646464"/>
    <path d="M74.4766,11.2106C66.9238,6.7224,57.5547,6.9606,48,11.8591c-9.5508-4.9024-18.9219-5.1328-26.4766-.6485C13.1816,16.1677,8,26.4646,8,38.0817,8,67.195,27.2988,77.3161,41.3887,84.7028c1.9843,1.043,3.8808,2.0352,5.6191,3.0313a2.0117,2.0117,0,0,0,1.9844,0c1.7383-.9961,3.6348-1.9883,5.6191-3.0313C68.7012,77.3161,88,67.195,88,38.0817,88,26.4646,82.8184,16.1677,74.4766,11.2106ZM70.791,42.4138,69.4648,44.406A8.6853,8.6853,0,0,0,68,49.2419v7.02A12.682,12.682,0,0,1,62.3379,66.84L55.0547,71.695a12.6756,12.6756,0,0,1-14.1094,0L33.6621,66.84A12.682,12.682,0,0,1,28,56.2614v-7.02a8.6853,8.6853,0,0,0-1.4648-4.8359L25.209,42.4138A12.7169,12.7169,0,0,1,42.1,24.32l1.5742.8985a8.7385,8.7385,0,0,0,8.65,0l1.5781-.8985A12.7163,12.7163,0,0,1,70.791,42.4138Z" fill="#646464"/>
  </g>
</svg>
