<svg xmlns="http://www.w3.org/2000/svg" viewBox="0 0 96 96">
  <title>monkey, ape, chimp</title>
  <g>
    <path d="M64.8008,42.6367a2,2,0,0,1-.2227-3.17,9.9741,9.9741,0,1,0-14.9121-12.98,2.0752,2.0752,0,0,1-3.332,0A9.9795,9.9795,0,1,0,31.4219,39.4668a2,2,0,0,1-.2227,3.17C26.5566,45.6934,24,49.7285,24,54c0,8.0391,6.3906,20,24,20S72,62.0391,72,54C72,49.7285,69.4434,45.6934,64.8008,42.6367ZM51.5,46a2,2,0,1,1-2,2A2,2,0,0,1,51.5,46Zm-7,0a2,2,0,1,1-2,2A2,2,0,0,1,44.5,46ZM34,32a4,4,0,1,1,4,4A4.0052,4.0052,0,0,1,34,32ZM59.7891,60.8945a13.3327,13.3327,0,0,1-23.5782,0,2,2,0,0,1,3.5782-1.789,9.3345,9.3345,0,0,0,16.4218,0,2,2,0,0,1,3.5782,1.789ZM58,36a4,4,0,1,1,4-4A4.0052,4.0052,0,0,1,58,36Z" fill="#646464"/>
    <path d="M90,40A14.0182,14.0182,0,0,0,79.2832,26.4414,21.9891,21.9891,0,0,0,48,12.4082,21.978,21.978,0,0,0,16.7285,26.44a13.945,13.945,0,0,0-4.5859,25.1269A17.8732,17.8732,0,0,0,12,54c0,15.5137,12.6172,32,36,32S84,69.5137,84,54a17.9835,17.9835,0,0,0-.1406-2.4336A13.9138,13.9138,0,0,0,90,40ZM48,78C29.6172,78,20,65.9258,20,54c0-4.9219,2.5527-9.6719,7.08-13.3086A13.9743,13.9743,0,0,1,48,22.2109,13.9721,13.9721,0,0,1,68.92,40.6914C73.4473,44.3281,76,49.0781,76,54,76,65.9258,66.3828,78,48,78Z" fill="#646464"/>
  </g>
</svg>
