<svg xmlns="http://www.w3.org/2000/svg" viewBox="0 0 96 96">
  <title>owl, nocturnal, bird</title>
  <g>
    <path d="M48,64c18.8574,0,32-15.81,32-30a25.8741,25.8741,0,0,0-6.04-16.6328H71.6152C60.99,17.3672,50,25.084,50,38a2,2,0,0,1-4,0c0-12.916-10.99-20.6328-21.6152-20.6328H22.04A25.8741,25.8741,0,0,0,16,34C16,48.1621,29.6855,64,48,64ZM64,28a4,4,0,1,1-4,4A4.0052,4.0052,0,0,1,64,28ZM32,28a4,4,0,1,1-4,4A4.0052,4.0052,0,0,1,32,28Z" fill="#646464"/>
    <path d="M48,28.1582c3.8818-8.8591,12.8535-14.0813,21.9141-14.6733A25.8417,25.8417,0,0,0,54,8H42a25.8417,25.8417,0,0,0-15.9141,5.4849C35.1465,14.0769,44.1182,19.2991,48,28.1582Z" fill="#646464"/>
    <path d="M60.259,65.8352A35.8865,35.8865,0,0,1,48,68c-13.7864,0-25.2122-8.0491-31.2832-18.1755C20,72,39.3069,88,62,88H75.6472C67.0627,83.0942,61.4688,75.1628,60.259,65.8352Z" fill="#646464"/>
    <path d="M64.1609,64.1521C64.96,73.5,70.8347,81.3589,80,85.6772V48.8562A37.1134,37.1134,0,0,1,64.1609,64.1521Z" fill="#646464"/>
  </g>
</svg>
