<svg xmlns="http://www.w3.org/2000/svg" viewBox="0 0 96 96">
  <title>pig, animal, hog</title>
  <g>
    <path d="M25.4182,14.4682a27.1182,27.1182,0,0,0-8.18-2.1553c-2.4727-.3652-4.8047-.7089-5.8242-1.7265A2,2,0,0,0,8,12c0,10.0033,2.7487,17.4571,8.1063,22.3235A30.3091,30.3091,0,0,1,25.4182,14.4682Z" fill="#646464"/>
    <path d="M75.9992,36.422A26.4511,26.4511,0,0,0,49.5776,10.0005H46.4214A26.4511,26.4511,0,0,0,20,36.422v3.1992a29.7942,29.7942,0,0,0-7.996,20.9372C12.2617,74.5856,24.1912,86,38.5973,86H55.0619C71.2883,86,83.73,75.0622,83.9952,60.5584a29.7951,29.7951,0,0,0-7.996-20.9372ZM57.9994,30a4,4,0,1,1-4,4A4.0039,4.0039,0,0,1,57.9994,30ZM38,30a4,4,0,1,1-4,4A4.004,4.004,0,0,1,38,30ZM52,74H44a12,12,0,1,1,0-24h8a12,12,0,0,1,0,24Z" fill="#646464"/>
    <path d="M52,54H44a8,8,0,0,0,0,16H52a8,8,0,0,0,0-16Zm-2,10V60a1.9995,1.9995,0,1,1,3.9989,0v4a1.9995,1.9995,0,1,1-3.9989,0ZM46,64a1.9995,1.9995,0,1,1-3.9989,0V60A1.9995,1.9995,0,1,1,46,60Z" fill="#646464"/>
    <path d="M88,12a2,2,0,0,0-3.414-1.414c-1.0195,1.0176-3.3515,1.3613-5.8242,1.7265a27.1182,27.1182,0,0,0-8.18,2.1553,30.3091,30.3091,0,0,1,9.3119,19.8557C85.2513,29.4575,88,22.0037,88,12Z" fill="#646464"/>
  </g>
</svg>
