<svg xmlns="http://www.w3.org/2000/svg" viewBox="0 0 96 96">
  <title>rabbit, bunny, hare</title>
  <g>
    <path d="M37,30.1411c-2.52-8.2-6.08-18.24-11.16-21.08a9.9937,9.9937,0,0,0-8.48-.76c-4.12,1.36-6.36,4.76-6.24,9.6.16,6.36,7.68,15.12,13.2,20.8A31.8514,31.8514,0,0,1,37,30.1411Z" fill="#646464"/>
    <path d="M48,32.1811a28,28,0,1,0,28,28A28.0323,28.0323,0,0,0,48,32.1811Zm-12,24a1.9988,1.9988,0,0,1-2-2,6,6,0,0,1,12,0,2,2,0,1,1-4,0,2,2,0,0,0-4,0A1.9988,1.9988,0,0,1,36,56.1808Zm22,14a5.9972,5.9972,0,0,1-10,4.4687,5.9972,5.9972,0,0,1-10-4.4687v-2a2,2,0,0,1,4,0v2a2,2,0,1,0,4,0,2,2,0,0,1,4,0,2,2,0,1,0,4,0v-2a2,2,0,0,1,4,0Zm2-14a1.9988,1.9988,0,0,1-2-2,2,2,0,0,0-4,0,2,2,0,1,1-4,0,6,6,0,0,1,12,0A1.9988,1.9988,0,0,1,60,56.1808Z" fill="#646464"/>
    <path d="M84.8794,18.1412c.12-4.84-2.12-8.24-6.24-9.6a9.9937,9.9937,0,0,0-8.48.76c-5.04,2.8-8.6,12.72-11.08,20.88a31.76,31.76,0,0,1,12.72,8.64C77.32,33.141,84.76,24.4612,84.8794,18.1412Z" fill="#646464"/>
  </g>
</svg>
