<svg xmlns="http://www.w3.org/2000/svg" viewBox="0 0 96 96">
  <title>toucan, beak, parrot</title>
  <g>
    <circle cx="30" cy="34" r="2" fill="#646464"/>
    <path d="M44.8015,64.5935C40.521,68.9146,34.9756,72,30,72a2,2,0,0,1,0-4c4.6934,0,14-4,14-12.4785V12H38A30.0328,30.0328,0,0,0,8,42V82a1.9988,1.9988,0,0,0,2,2H50a1.9988,1.9988,0,0,0,2-2c0-6.959-2.6836-10.377-4.84-13.123A9.6656,9.6656,0,0,1,44.8015,64.5935ZM24,34a6,6,0,1,1,6,6A6.0066,6.0066,0,0,1,24,34Z" fill="#646464"/>
    <path d="M58,12H48V36H86a1.9988,1.9988,0,0,0,2-2C88,19.4023,77.9063,12,58,12Z" fill="#646464"/>
    <path d="M48,56H58c13.7292,0,21.0071-5.4263,21.835-16H48Z" fill="#646464"/>
  </g>
</svg>
