<svg xmlns="http://www.w3.org/2000/svg" viewBox="0 0 96 96">
  <title>wolf, animal, wildlife</title>
  <g>
    <path d="M52,70.07v-2H44v2a2.0038,2.0038,0,0,0,2,2h4A2.0038,2.0038,0,0,0,52,70.07Z" fill="#646464"/>
    <path d="M83.8165,9.23a2.0032,2.0032,0,0,0-1.3359-1.1015,1.9811,1.9811,0,0,0-1.6914.3515,39.5133,39.5133,0,0,1-12.096,5.8821,35.6071,35.6071,0,0,1,11.96,16.5067C84.6168,26.1085,87.4967,17.18,83.8165,9.23Z" fill="#646464"/>
    <path d="M27.3068,14.3621A39.5133,39.5133,0,0,1,15.2108,8.48a1.9709,1.9709,0,0,0-1.6914-.3515A2.0032,2.0032,0,0,0,12.1835,9.23c-3.68,7.95-.8,16.8785,3.1631,21.6388A35.6071,35.6071,0,0,1,27.3068,14.3621Z" fill="#646464"/>
    <path d="M48,12.07c-23.5938,0-32,19.629-32,38a1.9988,1.9988,0,0,0,2,2c5.4348,0,7.94,4.5652,9.0811,9.3778.2319-.4449.4582-.8943.6924-1.3348,2.98-5.6015,4.4883-8.9531.8125-12.6289a2,2,0,1,1,2.8281-2.8282c5.9492,5.9493,2.73,11.9962-.1055,17.336C29.68,65.0506,28,68.2107,28,71.2771c0,7.8858,6.2212,15.7711,18,16.61V76.07a6.0066,6.0066,0,0,1-6-6v-2a4.0027,4.0027,0,0,1,4-4h8a4.0027,4.0027,0,0,1,4,4v2a6.0066,6.0066,0,0,1-6,6V87.8868c11.7789-.8386,18-8.7239,18-16.61,0-3.0664-1.68-6.2265-3.3086-9.2852-2.836-5.34-6.0547-11.3867-.1055-17.336a2,2,0,0,1,2.8281,2.8282c-3.6758,3.6758-2.1679,7.0274.8125,12.6289.2342.4405.46.89.6924,1.3348C70.06,56.6352,72.5653,52.07,78,52.07a1.9988,1.9988,0,0,0,2-2C80,31.6989,71.5938,12.07,48,12.07ZM43.414,39.4841a1.9993,1.9993,0,0,1-2.8281,0l-4-4a2,2,0,0,1,2.8281-2.8281l4,4A1.9993,1.9993,0,0,1,43.414,39.4841Zm16-4-4,4a2,2,0,0,1-2.8281-2.8282l4-4a2,2,0,0,1,2.8281,2.8281Z" fill="#646464"/>
  </g>
</svg>
